<svg xmlns="http://www.w3.org/2000/svg" width="86" height="76" stroke="#000" stroke-linecap="round" stroke-linejoin="round" fill="#fff" fill-rule="evenodd"><path d="M58.923314025341 52.7917c3.1383-.3041 5.5188-2.837 5.4108-5.877s-2.8139-5.4719-6.0606-5.4719h-.216c-3.3552.1016-5.9519 2.736-5.8437 5.877.108 1.52.7573 2.8373 1.7316 3.7493-3.6795 6.789-9.3068 11.754-17.7476 15.9084-5.7354 2.8373-11.6872 3.8507-17.6391 3.1415-4.8697-.6082-8.6574-2.6345-11.0385-5.9787-3.4626-4.9648-3.7872-10.3353-.8652-15.7056 2.0563-3.8504 5.3022-6.6879 7.3585-8.1064-.4329-1.3174-1.0821-3.5463-1.4068-5.1672-15.6915 10.6392-14.0679 25.0276-9.3065 31.8164 3.5709 5.0668 10.8215 8.2077 18.8294 8.2077 2.1645 0 4.3286-.2026 6.4932-.709 13.8516-2.5334 24.3488-10.2344 30.3005-21.6845zm19.0461-12.5645c-8.2245-9.0181-20.3448-13.9833-34.1966-13.9833h-1.7312c-.9742-1.8236-3.0301-3.0399-5.3024-3.0399h-.2168c-3.3543.1012-5.9517 2.7356-5.8434 5.8771.1083 3.04 2.8135 5.4717 6.0602 5.4717h.2161c2.3805-.1013 4.437-1.52 5.3027-3.4453h1.9477c8.2248 0 16.0163 2.229 23.0506 6.5864 5.4104 3.344 9.3061 7.7009 11.4706 12.9698 1.8396 4.2559 1.7313 8.4103-.2169 11.9569-3.0295 5.3703-8.1158 8.3089-14.8253 8.3089-4.3285 0-8.4406-1.2161-10.6051-2.1282-1.1906 1.0135-3.3551 2.6345-4.8698 3.6482 4.6534 2.0263 9.4148 3.1411 13.9598 3.1411 10.3887 0 18.072-5.3705 20.9942-10.7407 3.1383-5.8774 2.9214-16.0101-5.1944-24.6227zm-54.974 14.2868c.1081 3.04 2.8134 5.4717 6.0601 5.4717h.2165c3.3549-.1012 5.9517-2.7358 5.8437-5.8771-.108-3.04-2.8135-5.4715-6.0602-5.4715h-.2164c-.2163 0-.5412 0-.757.101-4.437-6.8902-6.2766-14.3882-5.6276-22.4946.4329-6.0795 2.5974-11.3487 6.3846-15.7057 3.1383-3.7494 9.1983-5.5734 13.311-5.6742 11.4704-.203 16.3401 13.1722 16.6649 18.5431 1.407.3035 3.7875 1.0129 5.4111 1.5199-1.2989-16.415-12.1205-24.9266-22.5089-24.9266-9.7398 0-18.7218 6.5862-22.293 16.314-4.9779 12.9695-1.7315 25.4328 4.3287 35.2616-.5407.7094-.8655 1.824-.7575 2.9386z" fill="hsla(263,46%,51%,1)" fill-rule="nonzero" stroke="none"/></svg>